<svg xmlns="http://www.w3.org/2000/svg" aria-hidden="true" style="position:absolute;width:0;height:0;overflow:hidden">
<defs>
<symbol id="icon-chocolate" viewBox="0 0 32 32"><path fill="#fcf1e0" d="M3.944 20.076 14.721 2.652l.64-.674 8.236 5.491.056 3.314 2.01 3.28-8.88 14.077-12.839-8.063z" style="fill:var(--color1, #fcf1e0)"/><path fill="none" stroke="#fd9222" stroke-linecap="round" stroke-linejoin="round" stroke-width="2.667" d="M21.635 23.88 7.45 15.016m3.911-6.417 14.185 8.864M10.63 25.864l11.736-19.25m4.81 8.175c-3.04-1.899-4.234-3.384-2.278-6.592l-9.626-6.015-11.736 19.25 14.186 8.864 9.454-15.507z" style="stroke:var(--color2, #fd9222)"/></symbol>
 <symbol id="icon-instagram" viewBox="0 0 30 32">
      <path d="M30.088 9.796c-.071-1.6-.329-2.7-.7-3.654a7.354 7.354 0 0 0-1.742-2.671 7.418 7.418 0 0 0-2.665-1.736c-.959-.371-2.053-.629-3.654-.7-1.612-.077-2.124-.094-6.213-.094s-4.601.018-6.207.088c-1.6.071-2.7.33-3.654.7a7.341 7.341 0 0 0-2.671 1.742A7.418 7.418 0 0 0 .846 6.136c-.371.959-.629 2.053-.7 3.653-.077 1.612-.094 2.124-.094 6.213s.018 4.601.088 6.207c.071 1.6.33 2.7.7 3.654a7.43 7.43 0 0 0 1.741 2.671 7.418 7.418 0 0 0 2.665 1.736c.959.371 2.053.63 3.654.7 1.606.071 2.118.088 6.207.088s4.601-.017 6.207-.088c1.6-.07 2.7-.329 3.653-.7a7.704 7.704 0 0 0 4.407-4.407c.37-.959.629-2.053.7-3.654.071-1.606.088-2.118.088-6.207s-.006-4.601-.077-6.207zm-2.712 12.296c-.065 1.471-.312 2.265-.518 2.795a4.992 4.992 0 0 1-2.859 2.859c-.529.206-1.329.453-2.795.518-1.589.071-2.065.088-6.083.088s-4.501-.017-6.084-.088c-1.471-.065-2.265-.312-2.795-.518a4.638 4.638 0 0 1-1.73-1.124 4.678 4.678 0 0 1-1.124-1.73c-.206-.529-.453-1.33-.518-2.795-.071-1.589-.088-2.065-.088-6.084s.017-4.501.088-6.083c.065-1.471.312-2.265.518-2.795a4.58 4.58 0 0 1 1.13-1.73 4.67 4.67 0 0 1 1.73-1.124c.529-.206 1.33-.453 2.795-.518 1.589-.071 2.065-.088 6.083-.088 4.024 0 4.501.018 6.084.088 1.471.065 2.265.312 2.795.518a4.625 4.625 0 0 1 1.73 1.124 4.69 4.69 0 0 1 1.124 1.73c.206.53.453 1.33.518 2.795.071 1.589.088 2.065.088 6.083s-.018 4.489-.088 6.078z"/>
      <path d="M15.115 8.266c-4.271 0-7.737 3.465-7.737 7.737s3.466 7.737 7.737 7.737 7.737-3.465 7.737-7.737-3.465-7.737-7.737-7.737zm0 12.755a5.02 5.02 0 1 1 .001-10.04 5.02 5.02 0 0 1-.001 10.04zM24.964 7.96a1.807 1.807 0 1 1-3.613-.001 1.807 1.807 0 0 1 3.613.001z"/>
    </symbol>
<symbol id="icon-twitter" viewBox="0 0 32 32"><path stroke-linecap="round" stroke-linejoin="round" stroke-width="2.667" d="M30.667 4a14.542 14.542 0 0 1-4.187 2.04 5.975 5.975 0 0 0-6.637-1.661A5.981 5.981 0 0 0 16 10.04v1.333c-2.343.061-4.665-.459-6.759-1.513S4.68 6.297 3.333 4.379c0 0-4.667 12.954 7.333 18.287a15.519 15.519 0 0 1-9.333 2.667C13.333 32 28 25.333 28 10a5.966 5.966 0 0 0-.107-1.107A10.288 10.288 0 0 0 30.666 4z"/></symbol>
 <symbol id="icon-hamburger" viewBox="0 0 20 20">
    <path fill-rule="evenodd" d="M3 5a1 1 0 011-1h12a1 1 0 110 2H4a1 1 0 01-1-1zM3 10a1 1 0 011-1h12a1 1 0 110 2H4a1 1 0 01-1-1zM3 15a1 1 0 011-1h12a1 1 0 110 2H4a1 1 0 01-1-1z" clip-rule="evenodd"/>
</symbol>
<symbol id="twitter" viewBox="0 0 768 768"><path d="M666.656 168.384c-5.952 7.744-12.512 15.2-19.712 22.272-7.456 7.424-11.104 18.144-8.896 29.056 1.184 5.824 1.92 12.928 1.952 20.288 0 168.192-77.728 287.072-185.92 348.736-84.704 48.288-190.016 62.56-295.104 35.84 39.84-11.552 78.72-29.472 114.976-54.080 4.704-3.168 8.736-7.776 11.264-13.472 7.168-16.16-0.096-35.072-16.256-42.24-88.768-39.456-132.16-93.792-152.608-146.976-13.344-34.688-17.472-70.336-16.64-103.264 0.672-25.952 4.416-49.92 8.896-69.824 12.608 10.976 25.696 22.592 39.52 33.216 65.632 50.464 147.968 79.328 236.64 77.024 17.376-0.48 31.232-14.624 31.232-32v-32.352c-0.064-5.728 0.288-11.424 1.088-17.056 3.616-25.792 16.128-50.208 37.184-68.512 23.2-20.192 52.352-29.056 80.832-27.072s56.096 14.816 76.288 38.016c8.064 9.152 20.768 13.312 33.056 9.728 7.392-2.144 14.816-4.576 22.24-7.296zM717.568 69.856c-23.68 16.704-48.736 29.632-73.184 38.56-29.792-26.752-66.912-41.664-104.832-44.32-44.736-3.104-90.752 10.848-127.264 42.624-33.152 28.832-52.864 67.456-58.56 107.904-1.184 8.48-1.76 17.024-1.728 25.6-61.504-4.544-118.176-27.2-164.8-63.040-24.8-19.072-46.784-41.888-65.088-67.712-10.24-14.4-30.208-17.824-44.608-7.584-4.928 3.488-8.544 8.096-10.72 13.088 0 0-4.224 9.568-9.12 24.32-3.584 10.784-7.712 24.8-11.424 41.28-5.216 23.104-9.664 51.264-10.432 82.272-0.992 39.264 3.84 83.584 20.864 127.872 21.856 56.8 62.912 111.296 132.704 154.336-50.208 23.232-103.84 33.248-155.936 30.944-17.664-0.768-32.608 12.896-33.376 30.56-0.544 12.448 6.080 23.552 16.416 29.376 156.96 87.2 333.632 85.696 469.312 8.352 129.28-73.632 218.208-214.4 218.208-404.288-0.032-5.344-0.256-10.56-0.736-15.648 32.192-35.68 53.632-77.728 63.872-120.992 4.064-17.184-6.592-34.432-23.776-38.496-9.28-2.208-18.56-0.096-25.824 4.992z" /></symbol>
<symbol id="icon-close" viewBox="0 0 8 8"> <path d="M8 0.805714L7.19429 0L4 3.19429L0.805714 0L0 0.805714L3.19429 4L0 7.19429L0.805714 8L4 4.80571L7.19429 8L8 7.19429L4.80571 4L8 0.805714Z" />
    </symbol>
</defs>
</svg>